HIERARCHY
ROOT Hips
{
	OFFSET 0.000000 0.000000 0.000000
	CHANNELS 6 Xposition Yposition Zposition Zrotation Yrotation Xrotation 
	JOINT LHipJoint
	{
		OFFSET 0.000000 0.000000 0.000000
		CHANNELS 3 Zrotation Yrotation Xrotation
		JOINT LeftUpLeg
		{
			OFFSET 1.363060 -1.794630 0.839290
			CHANNELS 3 Zrotation Yrotation Xrotation
			JOINT LeftLeg
			{
				OFFSET 2.448110 -6.726130 0.000000
				CHANNELS 3 Zrotation Yrotation Xrotation
				JOINT LeftFoot
				{
					OFFSET 2.562200 -7.039590 0.000000
					CHANNELS 3 Zrotation Yrotation Xrotation
					JOINT LeftToeBase
					{
						OFFSET 0.157640 -0.433110 2.322550
						CHANNELS 3 Zrotation Yrotation Xrotation
						End Site
						{
							OFFSET 0.000000 0.000000 0.000000
						}
					}
				}
			}
		}
	}
	JOINT RHipJoint
	{
		OFFSET 0.000000 0.000000 0.000000
		CHANNELS 3 Zrotation Yrotation Xrotation
		JOINT RightUpLeg
		{
			OFFSET -1.305520 -1.794630 0.839290
			CHANNELS 3 Zrotation Yrotation Xrotation
			JOINT RightLeg
			{
				OFFSET -2.542530 -6.985550 0.000000
				CHANNELS 3 Zrotation Yrotation Xrotation
				JOINT RightFoot
				{
					OFFSET -2.568260 -7.056230 0.000000
					CHANNELS 3 Zrotation Yrotation Xrotation
					JOINT RightToeBase
					{
						OFFSET -0.164730 -0.452590 2.363150
						CHANNELS 3 Zrotation Yrotation Xrotation
						End Site
						{
							OFFSET 0.000000 0.000000 0.000000
						}
					}
				}
			}
		}
	}
	JOINT LowerBack
	{
		OFFSET 0.000000 0.000000 0.000000
		CHANNELS 3 Zrotation Yrotation Xrotation
		JOINT Spine
		{
			OFFSET 0.028270 2.035590 -0.193380
			CHANNELS 3 Zrotation Yrotation Xrotation
			JOINT Spine1
			{
				OFFSET 0.056720 2.048850 -0.042750
				CHANNELS 3 Zrotation Yrotation Xrotation
				JOINT Neck
				{
					OFFSET 0.000000 0.000000 0.000000
					CHANNELS 3 Zrotation Yrotation Xrotation
					JOINT Neck1
					{
						OFFSET -0.054170 1.746240 0.172020
						CHANNELS 3 Zrotation Yrotation Xrotation
						JOINT Head
						{
							OFFSET 0.104070 1.761360 -0.123970
							CHANNELS 3 Zrotation Yrotation Xrotation
							End Site
							{
								OFFSET 0.000000 0.000000 0.000000
							}
						}
					}
				}
				JOINT LeftShoulder
				{
					OFFSET 0.000000 0.000000 0.000000
					CHANNELS 3 Zrotation Yrotation Xrotation
					JOINT LeftArm
					{
						OFFSET 3.362410 1.200890 -0.311210
						CHANNELS 3 Zrotation Yrotation Xrotation
						JOINT LeftForeArm
						{
							OFFSET 4.983000 -0.000000 -0.000000
							CHANNELS 3 Zrotation Yrotation Xrotation
							JOINT LeftHand
							{
								OFFSET 3.483560 -0.000000 -0.000000
								CHANNELS 3 Zrotation Yrotation Xrotation
								JOINT LeftFingerBase
								{
									OFFSET 0.000000 0.000000 0.000000
									CHANNELS 3 Zrotation Yrotation Xrotation
									JOINT LeftHandIndex1
									{
										OFFSET 0.715260 -0.000000 -0.000000
										CHANNELS 3 Zrotation Yrotation Xrotation
										End Site
										{
											OFFSET 0.000000 0.000000 0.000000
										}
									}
								}
								JOINT LThumb
								{
									OFFSET 0.000000 0.000000 0.000000
									CHANNELS 3 Zrotation Yrotation Xrotation
									End Site
									{
										OFFSET 0.000000 0.000000 0.000000
									}
								}
							}
						}
					}
				}
				JOINT RightShoulder
				{
					OFFSET 0.000000 0.000000 0.000000
					CHANNELS 3 Zrotation Yrotation Xrotation
					JOINT RightArm
					{
						OFFSET -3.136600 1.374050 -0.404650
						CHANNELS 3 Zrotation Yrotation Xrotation
						JOINT RightForeArm
						{
							OFFSET -5.241900 -0.000000 -0.000000
							CHANNELS 3 Zrotation Yrotation Xrotation
							JOINT RightHand
							{
								OFFSET -3.444170 -0.000000 -0.000000
								CHANNELS 3 Zrotation Yrotation Xrotation
								JOINT RightFingerBase
								{
									OFFSET 0.000000 0.000000 0.000000
									CHANNELS 3 Zrotation Yrotation Xrotation
									JOINT RightHandIndex1
									{
										OFFSET -0.622530 -0.000000 -0.000000
										CHANNELS 3 Zrotation Yrotation Xrotation
										End Site
										{
											OFFSET 0.000000 0.000000 0.000000
										}
									}
								}
								JOINT RThumb
								{
									OFFSET 0.000000 0.000000 0.000000
									CHANNELS 3 Zrotation Yrotation Xrotation
									End Site
									{
										OFFSET 0.000000 0.000000 0.000000
									}
								}
							}
						}
					}
				}
			}
		}
	}
}
MOTION
Frames: 5
Frame Time: 0.008333
-0.700006 17.612791 -4.219444 20.836486 27.551393 67.400311 -1.227946 -1.597814 -0.357685 -4.737748 -12.147811 -38.093888 0.029778 8.392213 22.522425 1.332565 -1.361660 20.635656 0.399500 -4.058300 -11.240800 2.859104 1.301062 -0.163679 -2.382157 3.278049 -87.099233 -4.682274 -10.713910 36.561677 0.513863 -3.351675 0.998777 -0.616100 -5.023300 13.975100 5.069232 4.877248 25.392986 13.335201 6.298997 20.272761 6.418574 4.003386 -2.756036 -4.415684 -11.028080 -13.931110 2.998119 -15.373517 -6.596336 -1.130700 -8.447700 3.074400 0.206631 5.385810 -1.596265 -89.447987 -4.669532 53.688579 61.364507 -59.325115 -35.978996 0.375685 0.473498 -14.122811 11.694636 24.643978 4.666600 -7.125000 0.000000 0.000000 -18.957200 53.697300 -4.170400 0.277437 -6.549778 -3.520486 -16.787183 53.950832 -36.058648 -13.250371 20.364455 -1.941498 -0.269313 0.096274 0.393358 -26.435235 10.361808 -5.011200 7.125000 0.000000 0.000000 0.613000 -18.554800 0.386100 
-0.719812 17.562776 -4.211041 21.407283 27.517952 69.873655 -1.012951 -1.713588 -0.501501 -4.297076 -12.520895 -40.059200 0.096229 8.628567 22.908593 1.398354 -1.170949 21.199524 0.289100 -3.457500 -9.555300 2.765806 1.316872 -0.139867 -3.326834 3.206516 -89.378360 -4.700462 -10.711332 36.573589 0.608921 -4.032855 1.315008 -0.642300 -5.127100 14.271500 4.910424 4.918097 23.395531 13.375741 6.143191 20.041981 6.621002 3.961216 -2.052795 -4.170302 -10.956111 -13.757936 2.913623 -15.393168 -7.340004 -1.129600 -8.507200 2.788600 0.191773 5.321735 -1.575054 -89.428663 -4.682511 53.649677 60.909028 -59.195887 -35.612727 0.378767 0.472916 -13.871251 11.494888 24.658974 4.583700 -7.125000 0.000000 0.000000 -19.161200 53.673900 -4.206700 0.318592 -6.541395 -3.631873 -18.768045 53.579075 -37.818514 -13.186938 20.121154 -1.909205 -0.286465 0.088037 1.277236 -26.807155 10.349955 -5.091300 7.125000 0.000000 0.000000 0.363600 -18.515700 0.229300 
-0.733716 17.526866 -4.186434 21.921697 27.565898 71.549078 -0.871189 -1.772762 -0.576363 -3.990256 -12.665694 -41.240275 0.163642 8.824911 23.324946 1.465002 -1.382983 21.567577 0.259600 -3.278300 -9.054500 2.704675 1.323190 -0.126655 -4.033921 3.083213 -90.753581 -4.715132 -10.719184 36.604874 0.681915 -4.547710 1.360705 -0.641000 -5.122100 14.257100 4.971876 4.891742 22.359804 13.443452 6.027529 19.930618 6.693169 3.929115 -1.662774 -4.071085 -10.913677 -13.615622 2.937027 -15.396006 -7.922939 -1.088900 -8.545000 2.578100 0.182032 5.276578 -1.558249 -89.312224 -4.691887 53.799311 60.915327 -59.186757 -35.605901 0.385989 0.491611 -13.549843 11.474062 25.627967 4.737400 -7.125000 0.000000 0.000000 -19.721300 54.567300 -4.775100 0.355269 -6.530333 -3.732073 -20.658319 53.215021 -39.618580 -13.088583 19.821092 -1.865505 -0.307451 0.083855 2.240112 -27.302821 10.346029 -5.201100 7.125000 0.000000 0.000000 0.030000 -18.458400 0.019000 
-0.745520 17.507560 -4.146622 22.028578 27.543063 72.380406 -0.801627 -1.787410 -0.600060 -3.800135 -12.318855 -41.650260 0.211073 8.929186 23.620254 1.528904 -1.819772 21.860111 0.261600 -3.290500 -9.088700 2.677753 1.327252 -0.120550 -4.482732 3.295222 -91.417304 -4.732373 -10.735274 36.664752 0.716761 -4.793086 1.364248 -0.346200 -3.780400 10.459700 5.069936 4.996110 22.127763 13.548502 6.131000 19.977244 6.724835 3.992268 -1.527278 -4.266681 -10.926225 -13.496020 3.147172 -15.374265 -8.316119 -0.968500 -8.553200 2.470900 0.176702 5.261172 -1.543143 -89.222762 -4.667766 53.947661 60.667403 -59.119195 -35.417278 0.384642 0.480342 -13.644016 11.453254 25.039122 4.628800 -7.125000 0.000000 0.000000 -19.412300 54.018300 -4.431500 0.381564 -6.506599 -3.821221 -22.444136 52.766677 -41.289817 -12.980606 19.500602 -1.821247 -0.338967 0.077238 3.226164 -28.053332 10.021178 -5.205200 7.125000 0.000000 0.000000 -0.497700 -18.729200 -0.311500 
-0.752122 17.482153 -4.117314 22.565113 27.515181 73.509828 -0.748637 -1.808556 -0.625747 -3.645281 -12.572750 -42.052087 0.240888 9.009708 23.786696 1.536265 -1.792682 21.910358 0.250700 -3.221600 -8.896300 2.652612 1.328370 -0.116775 -5.299780 3.150689 -92.159441 -4.755507 -10.764052 36.759760 0.784692 -5.257507 1.280985 -0.141300 -2.422500 6.674800 5.168457 4.990222 21.794751 13.661334 6.111236 19.877692 6.758157 3.997802 -1.471453 -4.382051 -10.954022 -13.339397 3.292244 -15.398774 -8.685461 -0.876700 -8.584600 2.353800 0.166023 5.247153 -1.529712 -89.188050 -4.568459 54.263378 60.369420 -59.033969 -35.187049 0.389532 0.475562 -13.611386 11.556755 24.869237 4.643000 -7.125000 0.000000 0.000000 -19.224000 53.881700 -4.320700 0.407255 -6.489723 -3.898134 -23.982286 52.178732 -42.312176 -12.914165 19.263268 -1.795910 -0.372984 0.064440 3.889214 -28.798673 9.470591 -5.083700 7.125000 0.000000 0.000000 -1.038700 -19.251400 -0.638300 
